<mxfile host="app.diagrams.net" modified="2023-12-21T14:35:22.726Z" agent="Mozilla/5.0 (Windows NT 10.0; Win64; x64) AppleWebKit/537.36 (KHTML, like Gecko) Chrome/120.0.0.0 Safari/537.36 Edg/120.0.0.0" etag="h0R9iSPLrWme9M8HisVm" version="22.1.11" type="github">
  <diagram name="第 1 页" id="WjtEfoCjeQpGv7PMO0MX">
    <mxGraphModel dx="1386" dy="759" grid="1" gridSize="10" guides="1" tooltips="1" connect="1" arrows="1" fold="1" page="1" pageScale="1" pageWidth="827" pageHeight="1169" math="0" shadow="0">
      <root>
        <object label="" id="0">
          <mxCell />
        </object>
        <mxCell id="1" parent="0" />
        <mxCell id="tJ_XeWBy5FtSFhFS7I7S-2" value="栈区" style="rounded=1;whiteSpace=wrap;html=1;fillColor=#d5e8d4;strokeColor=#82b366;" vertex="1" parent="1">
          <mxGeometry x="190" y="210" width="150" height="330" as="geometry" />
        </mxCell>
        <mxCell id="tJ_XeWBy5FtSFhFS7I7S-3" value="&lt;br&gt;&lt;br&gt;&lt;br&gt;&lt;br&gt;&lt;br&gt;&lt;br&gt;&lt;br&gt;&lt;br&gt;&lt;br&gt;&lt;br&gt;&lt;br&gt;&lt;br&gt;&lt;br&gt;&lt;br&gt;&lt;br&gt;&lt;br&gt;&lt;br&gt;&lt;br&gt;&lt;br&gt;&lt;br&gt;堆区" style="rounded=1;whiteSpace=wrap;html=1;fillColor=#ffe6cc;strokeColor=#d79b00;" vertex="1" parent="1">
          <mxGeometry x="450" y="210" width="370" height="330" as="geometry" />
        </mxCell>
        <mxCell id="tJ_XeWBy5FtSFhFS7I7S-5" value="&lt;br&gt;&lt;br&gt;&lt;br&gt;&lt;br&gt;&lt;br&gt;&lt;br&gt;&lt;br&gt;&lt;br&gt;&lt;br&gt;&lt;br&gt;StringTable" style="rounded=1;whiteSpace=wrap;html=1;fillColor=#e1d5e7;strokeColor=#9673a6;" vertex="1" parent="1">
          <mxGeometry x="690" y="300" width="110" height="200" as="geometry" />
        </mxCell>
        <mxCell id="tJ_XeWBy5FtSFhFS7I7S-22" style="edgeStyle=orthogonalEdgeStyle;rounded=0;orthogonalLoop=1;jettySize=auto;html=1;entryX=0.5;entryY=0;entryDx=0;entryDy=0;" edge="1" parent="1" source="tJ_XeWBy5FtSFhFS7I7S-6" target="tJ_XeWBy5FtSFhFS7I7S-5">
          <mxGeometry relative="1" as="geometry" />
        </mxCell>
        <mxCell id="tJ_XeWBy5FtSFhFS7I7S-6" value="a" style="ellipse;whiteSpace=wrap;html=1;aspect=fixed;fillColor=#dae8fc;strokeColor=#6c8ebf;" vertex="1" parent="1">
          <mxGeometry x="730" y="250" width="30" height="30" as="geometry" />
        </mxCell>
        <mxCell id="tJ_XeWBy5FtSFhFS7I7S-11" style="edgeStyle=orthogonalEdgeStyle;rounded=0;orthogonalLoop=1;jettySize=auto;html=1;entryX=0;entryY=0.25;entryDx=0;entryDy=0;" edge="1" parent="1" source="tJ_XeWBy5FtSFhFS7I7S-7" target="tJ_XeWBy5FtSFhFS7I7S-5">
          <mxGeometry relative="1" as="geometry">
            <Array as="points">
              <mxPoint x="630" y="350" />
              <mxPoint x="630" y="350" />
            </Array>
          </mxGeometry>
        </mxCell>
        <mxCell id="tJ_XeWBy5FtSFhFS7I7S-7" value="b" style="ellipse;whiteSpace=wrap;html=1;aspect=fixed;fillColor=#dae8fc;strokeColor=#6c8ebf;" vertex="1" parent="1">
          <mxGeometry x="630" y="340" width="30" height="30" as="geometry" />
        </mxCell>
        <mxCell id="tJ_XeWBy5FtSFhFS7I7S-13" value="a" style="ellipse;whiteSpace=wrap;html=1;aspect=fixed;fillColor=#dae8fc;strokeColor=#6c8ebf;" vertex="1" parent="1">
          <mxGeometry x="730" y="310" width="30" height="30" as="geometry" />
        </mxCell>
        <mxCell id="tJ_XeWBy5FtSFhFS7I7S-14" value="b" style="ellipse;whiteSpace=wrap;html=1;aspect=fixed;fillColor=#dae8fc;strokeColor=#6c8ebf;" vertex="1" parent="1">
          <mxGeometry x="700" y="330" width="30" height="30" as="geometry" />
        </mxCell>
        <mxCell id="tJ_XeWBy5FtSFhFS7I7S-19" style="edgeStyle=orthogonalEdgeStyle;rounded=0;orthogonalLoop=1;jettySize=auto;html=1;exitX=1;exitY=0.5;exitDx=0;exitDy=0;" edge="1" parent="1" source="tJ_XeWBy5FtSFhFS7I7S-17" target="tJ_XeWBy5FtSFhFS7I7S-18">
          <mxGeometry relative="1" as="geometry" />
        </mxCell>
        <mxCell id="tJ_XeWBy5FtSFhFS7I7S-24" value="隐式toString" style="edgeLabel;html=1;align=center;verticalAlign=middle;resizable=0;points=[];" vertex="1" connectable="0" parent="tJ_XeWBy5FtSFhFS7I7S-19">
          <mxGeometry x="-0.1" y="-1" relative="1" as="geometry">
            <mxPoint as="offset" />
          </mxGeometry>
        </mxCell>
        <mxCell id="tJ_XeWBy5FtSFhFS7I7S-17" value="&lt;div data-docx-has-block-data=&quot;false&quot; data-page-id=&quot;UZoRdkdu8opofLxGpygcwKWNnDZ&quot;&gt;&lt;div class=&quot;old-record-id-EMBtdrpnPoYWvUxG1PEctC5Kn7e&quot;&gt;stringBuilder&lt;/div&gt;&lt;/div&gt;" style="ellipse;whiteSpace=wrap;html=1;aspect=fixed;fillColor=#dae8fc;strokeColor=#6c8ebf;" vertex="1" parent="1">
          <mxGeometry x="460" y="390" width="70" height="70" as="geometry" />
        </mxCell>
        <mxCell id="tJ_XeWBy5FtSFhFS7I7S-18" value="&lt;div data-docx-has-block-data=&quot;false&quot; data-page-id=&quot;UZoRdkdu8opofLxGpygcwKWNnDZ&quot;&gt;&lt;div class=&quot;old-record-id-EMBtdrpnPoYWvUxG1PEctC5Kn7e&quot;&gt;ab&lt;/div&gt;&lt;/div&gt;" style="ellipse;whiteSpace=wrap;html=1;aspect=fixed;fillColor=#dae8fc;strokeColor=#6c8ebf;" vertex="1" parent="1">
          <mxGeometry x="610" y="390" width="70" height="70" as="geometry" />
        </mxCell>
      </root>
    </mxGraphModel>
  </diagram>
</mxfile>
